<svg width="22" height="23" viewBox="0 0 22 23" fill="none" xmlns="http://www.w3.org/2000/svg">
<path fill-rule="evenodd" clip-rule="evenodd" d="M15.1374 20.2084H7.48525C4.67442 20.2084 2.51805 19.1932 3.13056 15.107L3.84376 9.56922C4.22133 7.53032 5.52186 6.75 6.66298 6.75H15.9933C17.1512 6.75 18.3762 7.58905 18.8125 9.56922L19.5257 15.107C20.0459 18.7317 17.9483 20.2084 15.1374 20.2084Z" fill="white" stroke="white" stroke-width="1.5" stroke-linecap="round" stroke-linejoin="round"/>
<path d="M15.2631 6.54826C15.2631 4.36103 13.49 2.58793 11.3028 2.58793V2.58793C10.2495 2.58346 9.23791 2.99874 8.49157 3.74193C7.74523 4.48512 7.32567 5.495 7.32568 6.54826H7.32568" stroke="white" stroke-width="1.5" stroke-linecap="round" stroke-linejoin="round"/>
<path d="M14.0216 10.6764H13.9796" stroke="#1E1E1E" stroke-width="1.5" stroke-linecap="round" stroke-linejoin="round"/>
<path d="M8.67683 10.6764H8.63488" stroke="#1E1E1E" stroke-width="1.5" stroke-linecap="round" stroke-linejoin="round"/>
</svg>
