<svg width="267" height="152" viewBox="0 0 267 152" fill="none" xmlns="http://www.w3.org/2000/svg">
<path d="M58.8753 135.708C58.9497 135.613 59.0924 135.595 59.1965 135.678C59.5177 135.915 60.0323 136.218 60.6212 136.218C60.9811 136.218 61.2964 136.106 61.5046 135.933C61.7336 135.782 61.8555 135.574 61.8555 135.363C61.8466 135.146 61.7603 134.992 61.5224 134.793C61.3231 134.641 60.99 134.528 60.5349 134.451L60.5171 134.442C60.1007 134.368 59.7289 134.273 59.4642 134.083C59.1698 133.913 58.9616 133.608 58.9616 133.248C58.9616 132.889 59.1698 132.556 59.4642 132.339C59.7408 132.149 60.1275 132.027 60.6034 132.027C61.2012 132.027 61.6295 132.304 61.9894 132.529C62.0935 132.607 62.1232 132.746 62.0548 132.853C61.9894 132.957 61.8466 132.987 61.7425 132.918C61.4005 132.69 61.0584 132.455 60.6034 132.455C60.2226 132.455 59.9193 132.559 59.72 132.719C59.5296 132.871 59.4255 133.061 59.4255 133.251C59.4255 133.441 59.5118 133.572 59.6903 133.714C59.8985 133.857 60.2108 133.97 60.639 134.038H60.6569C61.103 134.104 61.4629 134.237 61.7871 134.418C62.0905 134.617 62.3076 134.977 62.3076 135.366C62.3076 135.755 62.0905 136.067 61.7752 136.305C61.454 136.542 61.0733 136.676 60.6182 136.676C59.8687 136.667 59.2798 136.316 58.8991 136.014C58.8039 135.927 58.795 135.806 58.8694 135.711L58.8753 135.708Z" fill="#202020"/>
<path d="M70.525 133.926C70.5071 133.139 69.8796 132.486 69.0825 132.486C68.2854 132.486 67.6489 133.139 67.6489 133.926V136.487L67.6399 136.504V136.522C67.6221 136.579 67.5745 136.617 67.5269 136.647C67.4882 136.665 67.4496 136.677 67.4139 136.677H67.3663L67.3485 136.668C67.3306 136.668 67.3098 136.65 67.2919 136.638C67.283 136.638 67.2741 136.629 67.2622 136.62L67.2325 136.591C67.2325 136.591 67.2235 136.573 67.2146 136.573C67.2146 136.573 67.2116 136.567 67.2057 136.555C67.2057 136.555 67.2057 136.546 67.1968 136.537C67.1968 136.528 67.1968 136.519 67.1878 136.507V133.929C67.1878 133.142 66.5514 132.489 65.7543 132.489C64.9571 132.489 64.3207 133.142 64.3207 133.929V136.46C64.3207 136.534 64.282 136.602 64.2166 136.641C64.2076 136.65 64.1779 136.671 64.16 136.671C64.1511 136.68 64.1422 136.68 64.1214 136.68H64.0649C63.9786 136.671 63.9043 136.593 63.8745 136.507V132.26C63.8745 132.135 63.9786 132.043 64.0916 132.043C64.2255 132.043 64.3207 132.138 64.3207 132.26V132.705C64.6627 132.298 65.1743 132.043 65.7543 132.043C66.477 132.043 67.0927 132.441 67.4169 133.029C67.75 132.441 68.3746 132.043 69.0884 132.043C70.1324 132.043 70.9771 132.887 70.9771 133.929V136.46C70.9771 136.573 70.8819 136.677 70.748 136.677C70.6231 136.677 70.5309 136.573 70.5309 136.46V133.929L70.525 133.926Z" fill="#202020"/>
<path d="M76.8009 132.256V136.447C76.8009 136.572 76.6968 136.676 76.5719 136.676C76.447 136.676 76.3429 136.572 76.3429 136.447V135.755C75.9443 136.305 75.3078 136.676 74.597 136.676C73.3716 136.676 72.3931 135.624 72.3931 134.353C72.3931 133.082 73.3716 132.03 74.597 132.03C75.3078 132.03 75.9443 132.39 76.3429 132.939V132.256C76.3429 132.122 76.447 132.027 76.5719 132.027C76.6968 132.027 76.8009 132.122 76.8009 132.256ZM76.3459 134.35C76.3459 133.308 75.5577 132.473 74.6 132.473C73.6423 132.473 72.8541 133.308 72.8541 134.35C72.8541 135.393 73.6512 136.218 74.6 136.218C75.5488 136.218 76.3459 135.393 76.3459 134.35Z" fill="#202020"/>
<path d="M78.9785 130.266C78.9785 130.141 79.0826 130.037 79.2075 130.037C79.3414 130.037 79.4455 130.141 79.4455 130.266V136.447C79.4455 136.572 79.3414 136.676 79.2075 136.676C79.0826 136.676 78.9785 136.572 78.9785 136.447V130.266Z" fill="#202020"/>
<path d="M81.3428 130.266C81.3428 130.141 81.4469 130.037 81.5718 130.037C81.7056 130.037 81.8097 130.141 81.8097 130.266V136.447C81.8097 136.572 81.7056 136.676 81.5718 136.676C81.4469 136.676 81.3428 136.572 81.3428 136.447V130.266Z" fill="#202020"/>
<path d="M86.4883 134.427V132.256C86.4883 132.131 86.5924 132.027 86.7173 132.027C86.8511 132.027 86.9552 132.131 86.9552 132.256V132.93C87.3538 132.39 87.9992 132.03 88.722 132.03C89.9741 132.03 90.9705 133.064 90.9705 134.335C90.9705 135.607 89.9741 136.649 88.722 136.649C87.9992 136.649 87.3538 136.29 86.9552 135.74V138.396C86.9552 138.52 86.8511 138.624 86.7173 138.624C86.5954 138.624 86.4883 138.52 86.4883 138.396V134.433V134.427ZM86.9523 134.332C86.9523 135.357 87.7583 136.18 88.719 136.192C89.7064 136.183 90.5035 135.357 90.5035 134.332C90.5035 133.308 89.7064 132.494 88.719 132.494C87.7315 132.494 86.9909 133.272 86.9523 134.258V134.335V134.332Z" fill="#202020"/>
<path d="M92.6602 132.246C92.6602 132.113 92.7643 132.018 92.8892 132.018C93.0141 132.018 93.1182 132.113 93.1182 132.246V134.777C93.1182 135.573 93.7547 136.209 94.5429 136.218C95.34 136.209 95.9854 135.573 95.9854 134.777V132.246C95.9854 132.113 96.0984 132.018 96.2144 132.018C96.3482 132.018 96.4523 132.113 96.4523 132.246V134.777C96.4523 135.82 95.6077 136.672 94.5429 136.672C93.4781 136.672 92.6631 135.82 92.6631 134.777V132.246H92.6602Z" fill="#202020"/>
<path d="M98.5757 132.268C98.5757 132.134 98.6798 132.039 98.8136 132.039C98.9267 132.039 99.0307 132.134 99.0307 132.268V133.293C99.0486 133.254 99.0694 133.218 99.0962 133.18C99.4471 132.63 100.066 132.042 100.958 132.042C101.08 132.042 101.187 132.137 101.187 132.271C101.187 132.396 101.083 132.499 100.958 132.499C100.351 132.499 99.932 132.841 99.6107 133.257C99.2984 133.673 99.117 134.148 99.0516 134.338C99.0337 134.377 99.0337 134.395 99.0337 134.412V136.45C99.0337 136.584 98.9296 136.679 98.8166 136.679C98.6828 136.679 98.5787 136.584 98.5787 136.45V132.268H98.5757Z" fill="#202020"/>
<path d="M102.175 134.343C102.175 133.054 103.24 132.029 104.566 132.029C105.116 132.029 105.64 132.219 106.047 132.54C106.142 132.606 106.16 132.748 106.077 132.852C106.003 132.938 105.869 132.965 105.765 132.891C105.432 132.626 105.015 132.475 104.569 132.475C103.486 132.475 102.633 133.318 102.633 134.343C102.633 135.368 103.486 136.22 104.569 136.22C105.015 136.22 105.435 136.069 105.765 135.813C105.869 135.739 106.003 135.766 106.077 135.852C106.163 135.956 106.142 136.099 106.029 136.185C105.64 136.488 105.119 136.678 104.566 136.678C103.237 136.678 102.175 135.653 102.175 134.346V134.343Z" fill="#202020"/>
<path d="M111.347 133.86C111.347 133.043 110.684 132.494 109.866 132.494C109.048 132.494 108.394 133.043 108.394 133.86V136.477C108.394 136.495 108.385 136.506 108.385 136.515C108.376 136.533 108.376 136.545 108.367 136.554C108.337 136.61 108.29 136.649 108.224 136.667C108.224 136.667 108.215 136.676 108.206 136.676H108.159C108.093 136.676 108.025 136.646 107.977 136.599C107.959 136.569 107.948 136.551 107.939 136.524C107.93 136.495 107.93 136.477 107.93 136.447V130.266C107.93 130.141 108.034 130.037 108.159 130.037C108.293 130.037 108.397 130.141 108.397 130.266V132.713C108.748 132.298 109.28 132.03 109.869 132.03C110.943 132.03 111.814 132.788 111.814 133.86V136.447C111.814 136.572 111.71 136.676 111.576 136.676C111.451 136.676 111.347 136.572 111.347 136.447V133.86Z" fill="#202020"/>
<path d="M118.033 132.256V136.447C118.033 136.572 117.929 136.676 117.804 136.676C117.679 136.676 117.575 136.572 117.575 136.447V135.755C117.177 136.305 116.54 136.676 115.829 136.676C114.604 136.676 113.625 135.624 113.625 134.353C113.625 133.082 114.604 132.03 115.829 132.03C116.54 132.03 117.177 132.39 117.575 132.939V132.256C117.575 132.122 117.679 132.027 117.804 132.027C117.929 132.027 118.033 132.122 118.033 132.256ZM117.578 134.35C117.578 133.308 116.79 132.473 115.832 132.473C114.875 132.473 114.086 133.308 114.086 134.35C114.086 135.393 114.884 136.218 115.832 136.218C116.781 136.218 117.578 135.393 117.578 134.35Z" fill="#202020"/>
<path d="M119.684 135.708C119.758 135.613 119.901 135.595 120.005 135.678C120.326 135.915 120.841 136.218 121.43 136.218C121.79 136.218 122.105 136.106 122.313 135.933C122.542 135.782 122.664 135.574 122.664 135.363C122.655 135.146 122.569 134.992 122.331 134.793C122.132 134.641 121.799 134.528 121.344 134.451L121.326 134.442C120.906 134.368 120.538 134.273 120.273 134.083C119.978 133.913 119.77 133.608 119.77 133.248C119.77 132.889 119.978 132.556 120.273 132.339C120.549 132.149 120.936 132.027 121.412 132.027C122.01 132.027 122.438 132.304 122.798 132.529C122.902 132.607 122.932 132.746 122.863 132.853C122.798 132.957 122.655 132.987 122.551 132.918C122.209 132.69 121.867 132.455 121.412 132.455C121.031 132.455 120.728 132.559 120.529 132.719C120.338 132.871 120.234 133.061 120.234 133.251C120.234 133.441 120.32 133.572 120.499 133.714C120.707 133.857 121.022 133.97 121.448 134.038H121.465C121.912 134.104 122.272 134.237 122.596 134.418C122.899 134.617 123.116 134.977 123.116 135.366C123.116 135.755 122.899 136.067 122.584 136.305C122.263 136.542 121.882 136.676 121.427 136.676C120.677 136.667 120.088 136.316 119.708 136.014C119.613 135.927 119.604 135.806 119.678 135.711L119.684 135.708Z" fill="#202020"/>
<path d="M124.348 134.361C124.348 133.072 125.353 132.029 126.608 132.029C127.863 132.029 128.753 132.977 128.848 134.192V134.23C128.848 134.355 128.744 134.438 128.619 134.438H124.803C124.85 135.454 125.647 136.22 126.605 136.22C127.224 136.22 127.792 135.897 128.104 135.377C128.17 135.264 128.312 135.243 128.408 135.3C128.512 135.377 128.55 135.508 128.485 135.62C128.086 136.256 127.393 136.672 126.605 136.672C125.353 136.672 124.345 135.629 124.345 134.358L124.348 134.361ZM124.833 133.99H128.354C128.202 133.116 127.462 132.481 126.608 132.481C125.755 132.481 125.005 133.108 124.833 133.99Z" fill="#202020"/>
<path d="M130.142 135.708C130.216 135.613 130.359 135.595 130.463 135.678C130.784 135.915 131.299 136.218 131.888 136.218C132.248 136.218 132.563 136.106 132.771 135.933C133 135.782 133.122 135.574 133.122 135.363C133.113 135.146 133.027 134.992 132.789 134.793C132.59 134.641 132.257 134.528 131.802 134.451L131.784 134.442C131.364 134.368 130.996 134.273 130.731 134.083C130.436 133.913 130.228 133.608 130.228 133.248C130.228 132.889 130.436 132.556 130.731 132.339C131.007 132.149 131.394 132.027 131.87 132.027C132.468 132.027 132.896 132.304 133.256 132.529C133.36 132.607 133.39 132.746 133.321 132.853C133.256 132.957 133.113 132.987 133.009 132.918C132.667 132.69 132.325 132.455 131.87 132.455C131.489 132.455 131.186 132.559 130.987 132.719C130.796 132.871 130.692 133.061 130.692 133.251C130.692 133.441 130.778 133.572 130.957 133.714C131.165 133.857 131.48 133.97 131.906 134.038H131.923C132.37 134.104 132.73 134.237 133.054 134.418C133.357 134.617 133.574 134.977 133.574 135.366C133.574 135.755 133.357 136.067 133.042 136.305C132.721 136.542 132.34 136.676 131.885 136.676C131.135 136.667 130.546 136.316 130.166 136.014C130.071 135.927 130.062 135.806 130.136 135.711L130.142 135.708Z" fill="#202020"/>
<path d="M134.841 137.406C135.184 137.216 135.317 137.008 135.288 136.676C135.145 136.637 135.032 136.533 135.032 136.343V136.144C135.032 135.963 135.166 135.832 135.344 135.832C135.523 135.832 135.656 135.966 135.656 136.144V136.382C135.656 136.913 135.57 137.198 135.401 137.368C135.231 137.537 134.993 137.671 134.907 137.671C134.841 137.671 134.764 137.623 134.764 137.528C134.764 137.481 134.794 137.433 134.841 137.403V137.406Z" fill="#202020"/>
<path d="M140.168 134.457V130.266C140.168 130.141 140.272 130.037 140.397 130.037C140.531 130.037 140.635 130.141 140.635 130.266V132.939C141.042 132.39 141.688 132.03 142.419 132.03C143.672 132.03 144.671 133.073 144.671 134.362C144.671 135.651 143.675 136.676 142.419 136.676C141.688 136.676 141.042 136.325 140.635 135.776V136.45C140.635 136.575 140.531 136.679 140.397 136.679C140.272 136.679 140.168 136.575 140.168 136.45V134.46V134.457ZM140.632 134.362C140.632 135.387 141.438 136.209 142.417 136.209C143.395 136.209 144.201 135.384 144.201 134.362C144.201 133.34 143.404 132.494 142.417 132.494C141.429 132.494 140.671 133.29 140.632 134.285V134.362Z" fill="#202020"/>
<path d="M146.444 130.74C146.444 130.616 146.548 130.512 146.673 130.512C146.807 130.512 146.911 130.616 146.911 130.74V130.957C146.911 131.091 146.807 131.204 146.673 131.204C146.548 131.204 146.444 131.091 146.444 130.957V130.74ZM146.444 132.258C146.444 132.125 146.548 132.03 146.673 132.03C146.807 132.03 146.911 132.125 146.911 132.258V136.449C146.911 136.574 146.807 136.678 146.673 136.678C146.548 136.678 146.444 136.574 146.444 136.449V132.258Z" fill="#202020"/>
<path d="M153.166 136.305C153.166 137.508 152.187 138.485 150.974 138.485C150.632 138.485 150.31 138.399 150.004 138.268C149.909 138.203 149.852 138.069 149.909 137.965C149.965 137.84 150.099 137.796 150.212 137.861C150.45 137.974 150.688 138.03 150.971 138.03C151.94 138.03 152.708 137.261 152.708 136.305V135.734C152.318 136.293 151.682 136.643 150.971 136.643C149.754 136.643 148.788 135.61 148.788 134.329C148.788 133.049 149.757 132.024 150.971 132.024C151.682 132.024 152.318 132.384 152.708 132.933V132.25C152.708 132.125 152.812 132.021 152.946 132.021C153.059 132.021 153.163 132.125 153.163 132.25V136.299L153.166 136.305ZM152.711 134.332C152.711 133.299 151.931 132.485 150.974 132.485C150.016 132.485 149.246 133.302 149.246 134.332C149.246 135.363 150.025 136.201 150.974 136.201C151.922 136.201 152.711 135.375 152.711 134.332Z" fill="#202020"/>
<path d="M158.228 130.74C158.228 130.616 158.332 130.512 158.457 130.512C158.591 130.512 158.695 130.616 158.695 130.74V130.957C158.695 131.091 158.591 131.204 158.457 131.204C158.332 131.204 158.228 131.091 158.228 130.957V130.74ZM158.228 132.258C158.228 132.125 158.332 132.03 158.457 132.03C158.591 132.03 158.695 132.125 158.695 132.258V136.449C158.695 136.574 158.591 136.678 158.457 136.678C158.332 136.678 158.228 136.574 158.228 136.449V132.258Z" fill="#202020"/>
<path d="M167.543 133.926C167.525 133.139 166.898 132.486 166.101 132.486C165.303 132.486 164.667 133.139 164.667 133.926V136.487L164.658 136.504V136.522C164.64 136.579 164.593 136.617 164.545 136.647C164.506 136.665 164.468 136.677 164.432 136.677H164.384L164.367 136.668C164.349 136.668 164.328 136.65 164.31 136.638C164.301 136.638 164.292 136.629 164.28 136.62L164.251 136.591C164.251 136.591 164.242 136.573 164.233 136.573C164.233 136.573 164.23 136.567 164.224 136.555C164.224 136.555 164.224 136.546 164.215 136.537C164.215 136.528 164.215 136.519 164.206 136.507V133.929C164.206 133.142 163.569 132.489 162.772 132.489C161.975 132.489 161.339 133.142 161.339 133.929V136.46C161.339 136.534 161.3 136.602 161.235 136.641C161.226 136.65 161.196 136.671 161.178 136.671C161.169 136.68 161.16 136.68 161.139 136.68H161.083C160.997 136.671 160.922 136.593 160.893 136.507V132.26C160.893 132.135 160.997 132.043 161.11 132.043C161.244 132.043 161.339 132.138 161.339 132.26V132.705C161.681 132.298 162.192 132.043 162.772 132.043C163.495 132.043 164.111 132.441 164.435 133.029C164.768 132.441 165.393 132.043 166.106 132.043C167.15 132.043 167.995 132.887 167.995 133.929V136.46C167.995 136.573 167.9 136.677 167.766 136.677C167.641 136.677 167.549 136.573 167.549 136.46V133.929L167.543 133.926Z" fill="#202020"/>
<path d="M169.917 134.427V132.256C169.917 132.131 170.021 132.027 170.146 132.027C170.28 132.027 170.384 132.131 170.384 132.256V132.93C170.783 132.39 171.428 132.03 172.151 132.03C173.403 132.03 174.399 133.064 174.399 134.335C174.399 135.607 173.403 136.649 172.151 136.649C171.428 136.649 170.783 136.29 170.384 135.74V138.396C170.384 138.52 170.28 138.624 170.146 138.624C170.024 138.624 169.917 138.52 169.917 138.396V134.433V134.427ZM170.381 134.332C170.381 135.357 171.187 136.18 172.148 136.192C173.135 136.183 173.932 135.357 173.932 134.332C173.932 133.308 173.135 132.494 172.148 132.494C171.16 132.494 170.42 133.272 170.381 134.258V134.335V134.332Z" fill="#202020"/>
<path d="M180.086 132.256V136.447C180.086 136.572 179.982 136.676 179.857 136.676C179.732 136.676 179.628 136.572 179.628 136.447V135.755C179.229 136.305 178.593 136.676 177.882 136.676C176.656 136.676 175.678 135.624 175.678 134.353C175.678 133.082 176.656 132.03 177.882 132.03C178.593 132.03 179.229 132.39 179.628 132.939V132.256C179.628 132.122 179.732 132.027 179.857 132.027C179.982 132.027 180.086 132.122 180.086 132.256ZM179.631 134.35C179.631 133.308 178.842 132.473 177.885 132.473C176.927 132.473 176.139 133.308 176.139 134.35C176.139 135.393 176.936 136.218 177.885 136.218C178.833 136.218 179.631 135.393 179.631 134.35Z" fill="#202020"/>
<path d="M181.73 134.343C181.73 133.054 182.795 132.029 184.121 132.029C184.672 132.029 185.195 132.219 185.602 132.54C185.698 132.606 185.715 132.748 185.632 132.852C185.558 132.938 185.424 132.965 185.32 132.891C184.987 132.626 184.57 132.475 184.124 132.475C183.042 132.475 182.188 133.318 182.188 134.343C182.188 135.368 183.042 136.22 184.124 136.22C184.57 136.22 184.99 136.069 185.32 135.813C185.424 135.739 185.558 135.766 185.632 135.852C185.718 135.956 185.698 136.099 185.585 136.185C185.195 136.488 184.674 136.678 184.121 136.678C182.792 136.678 181.73 135.653 181.73 134.346V134.343Z" fill="#202020"/>
<path d="M189.107 132.256C189.107 132.369 188.994 132.485 188.878 132.485H188.28V135.871C188.28 136.1 188.509 136.213 188.622 136.213C188.735 136.213 188.86 136.338 188.86 136.45C188.86 136.563 188.735 136.679 188.622 136.679C188.158 136.679 187.804 136.338 187.804 135.874V132.488H187.224C186.995 132.488 186.995 132.375 186.995 132.259C186.995 132.144 186.995 132.031 187.224 132.031H187.804V130.305C187.804 130.192 187.917 130.076 188.033 130.076C188.158 130.076 188.28 130.189 188.28 130.305V132.031H188.878C188.991 132.031 189.107 132.144 189.107 132.259V132.256Z" fill="#202020"/>
<path d="M42.7643 118.103C42.7643 115.415 43.3413 113.247 44.4953 111.601C45.6493 109.956 47.2732 109.133 49.3612 109.133C50.3695 109.133 51.2558 109.35 52.0202 109.78C52.7846 110.211 53.4329 110.832 53.9624 111.643L54.3371 109.448H57.4869V126.301C57.4869 128.473 56.8177 130.148 55.4733 131.333C54.1319 132.518 52.2284 133.109 49.7657 133.109C48.9448 133.109 48.0584 132.993 47.1067 132.759C46.1549 132.524 45.2954 132.215 44.525 131.832L45.1318 128.856C45.7772 129.177 46.497 129.429 47.2911 129.61C48.0852 129.791 48.9002 129.883 49.733 129.883C51.1071 129.883 52.1094 129.589 52.7429 129.004C53.3764 128.416 53.6947 127.516 53.6947 126.301V124.573C53.1653 125.247 52.5377 125.761 51.8149 126.108C51.0922 126.456 50.2624 126.631 49.3255 126.631C47.2554 126.631 45.6433 125.879 44.4893 124.374C43.3353 122.868 42.7583 120.889 42.7583 118.439V118.112L42.7643 118.103ZM46.5386 118.43C46.5386 119.989 46.839 121.228 47.4428 122.152C48.0465 123.075 48.9983 123.539 50.2981 123.539C51.11 123.539 51.7941 123.37 52.3503 123.031C52.9065 122.692 53.3556 122.208 53.7006 121.575V114.191C53.3467 113.579 52.8916 113.098 52.3354 112.751C51.7793 112.403 51.11 112.228 50.3308 112.228C49.031 112.228 48.0733 112.771 47.4606 113.856C46.8479 114.94 46.5416 116.357 46.5416 118.1V118.427L46.5386 118.43Z" fill="#202020"/>
<path d="M65.4904 105.312H61.7012V101.994H65.4904V105.312ZM65.4904 126.294H61.7012V109.441H65.4904V126.294Z" fill="#202020"/>
<path d="M75.6001 120.595L75.8797 121.967H75.9719L76.2693 120.595L79.6243 109.441H83.5384L77.5483 126.295H74.2558L68.2358 109.441H72.15L75.5972 120.595H75.6001Z" fill="#202020"/>
<path d="M92.8839 126.623C90.4183 126.623 88.4939 125.848 87.1049 124.294C85.716 122.741 85.0229 120.73 85.0229 118.259V117.635C85.0229 115.164 85.716 113.126 87.1049 111.522C88.4939 109.918 90.2844 109.122 92.4794 109.131C94.7458 109.131 96.462 109.829 97.6279 111.225C98.7938 112.621 99.3738 114.489 99.3738 116.824V118.865H88.9401L88.9103 118.942C88.952 120.323 89.3148 121.446 90.0019 122.307C90.6889 123.169 91.724 123.599 93.107 123.599C94.1361 123.599 95.0284 123.475 95.7809 123.225C96.5334 122.976 97.2353 122.616 97.8777 122.15L99.1091 124.627C98.4637 125.188 97.6101 125.661 96.5512 126.044C95.4924 126.427 94.2699 126.62 92.8869 126.62L92.8839 126.623ZM92.4794 112.167C91.492 112.167 90.7008 112.523 90.1089 113.233C89.5171 113.946 89.1483 114.873 89.0025 116.013L89.0323 116.09H95.6292V115.793C95.6292 114.712 95.3764 113.839 94.8737 113.168C94.3681 112.496 93.571 112.164 92.4794 112.164V112.167Z" fill="#202020"/>
<path d="M110.586 111.994L115.375 103.615H119.866L112.876 114.861L120.13 126.294H115.577L110.649 117.772L105.72 126.294H101.229L108.373 114.861L101.384 103.615H105.845L110.586 111.994Z" fill="#4E9D4B"/>
<path d="M129.196 123.6C130.059 123.6 130.79 123.33 131.388 122.789C131.986 122.249 132.286 121.566 132.286 120.734H135.719L135.751 120.829C135.793 122.406 135.165 123.767 133.872 124.91C132.578 126.054 131.019 126.624 129.199 126.624C126.766 126.624 124.889 125.822 123.569 124.218C122.248 122.614 121.588 120.591 121.588 118.15V117.603C121.588 115.173 122.248 113.154 123.569 111.544C124.889 109.934 126.76 109.129 129.184 109.129C131.15 109.129 132.744 109.717 133.973 110.896C135.198 112.075 135.793 113.573 135.751 115.39L135.719 115.482H132.286C132.286 114.559 132.001 113.774 131.43 113.13C130.859 112.485 130.109 112.165 129.184 112.165C127.831 112.165 126.861 112.687 126.266 113.73C125.675 114.773 125.377 116.065 125.377 117.6V118.147C125.377 119.715 125.672 121.016 126.257 122.05C126.843 123.083 127.825 123.6 129.196 123.6Z" fill="#202020"/>
<path d="M142.673 111.621C143.235 110.831 143.919 110.219 144.725 109.782C145.531 109.346 146.423 109.129 147.399 109.129C149.186 109.129 150.584 109.693 151.586 110.819C152.589 111.945 153.091 113.682 153.091 116.029V126.294H149.302V115.996C149.302 114.677 149.043 113.718 148.529 113.121C148.014 112.524 147.247 112.224 146.227 112.224C145.415 112.224 144.713 112.367 144.121 112.652C143.529 112.937 143.044 113.335 142.67 113.843V126.288H138.88V101.988H142.67V111.615L142.673 111.621Z" fill="#202020"/>
<path d="M167.193 126.298C167.056 125.874 166.946 125.458 166.857 125.051C166.767 124.644 166.708 124.24 166.678 123.836C166.17 124.626 165.489 125.288 164.635 125.823C163.781 126.358 162.83 126.625 161.78 126.625C160.022 126.625 158.671 126.174 157.732 125.271C156.789 124.368 156.319 123.126 156.319 121.549C156.319 119.971 156.964 118.65 158.252 117.741C159.54 116.832 161.357 116.377 163.695 116.377H166.643V114.898C166.643 114.016 166.384 113.324 165.869 112.825C165.355 112.326 164.608 112.076 163.63 112.076C162.767 112.076 162.08 112.281 161.571 112.691C161.063 113.101 160.807 113.633 160.807 114.289L157.158 114.304L157.143 114.212C157.068 112.881 157.666 111.705 158.927 110.674C160.191 109.647 161.836 109.133 163.865 109.133C165.893 109.133 167.416 109.632 168.623 110.627C169.828 111.625 170.432 113.057 170.432 114.925V122.419C170.432 123.114 170.479 123.782 170.572 124.421C170.664 125.06 170.815 125.686 171.024 126.298H167.187H167.193ZM162.559 123.589C163.505 123.589 164.361 123.352 165.126 122.873C165.89 122.395 166.396 121.852 166.645 121.237V118.745H163.636C162.532 118.745 161.67 119.018 161.045 119.562C160.42 120.105 160.108 120.747 160.108 121.486C160.108 122.131 160.319 122.642 160.739 123.022C161.158 123.402 161.765 123.589 162.556 123.589H162.559Z" fill="#202020"/>
<path d="M177.832 109.441L178.049 111.871C178.599 111.009 179.295 110.335 180.131 109.854C180.967 109.372 181.912 109.129 182.962 109.129C184.72 109.129 186.091 109.67 187.073 110.748C188.054 111.829 188.548 113.516 188.548 115.809V126.291H184.759V115.839C184.759 114.529 184.503 113.602 183.994 113.05C183.486 112.5 182.715 112.224 181.686 112.224C180.874 112.224 180.172 112.378 179.581 112.684C178.989 112.99 178.516 113.415 178.162 113.953V126.291H174.373V109.438H177.835L177.832 109.441Z" fill="#202020"/>
<path d="M191.9 118.103C191.9 115.415 192.477 113.247 193.631 111.601C194.785 109.956 196.406 109.133 198.496 109.133C199.505 109.133 200.391 109.35 201.155 109.78C201.92 110.211 202.568 110.832 203.098 111.643L203.472 109.448H206.622V126.301C206.622 128.473 205.953 130.148 204.609 131.333C203.267 132.518 201.364 133.109 198.901 133.109C198.08 133.109 197.194 132.993 196.242 132.759C195.29 132.524 194.431 132.215 193.66 131.832L194.267 128.856C194.912 129.177 195.632 129.429 196.426 129.61C197.22 129.791 198.035 129.883 198.868 129.883C200.239 129.883 201.245 129.589 201.878 129.004C202.512 128.416 202.83 127.516 202.83 126.301V124.573C202.301 125.247 201.673 125.761 200.95 126.108C200.227 126.456 199.398 126.631 198.461 126.631C196.391 126.631 194.779 125.879 193.625 124.374C192.471 122.868 191.894 120.889 191.894 118.439V118.112L191.9 118.103ZM195.674 118.43C195.674 119.989 195.974 121.228 196.578 122.152C197.182 123.075 198.134 123.539 199.433 123.539C200.245 123.539 200.929 123.37 201.486 123.031C202.042 122.692 202.491 122.208 202.836 121.575V114.191C202.482 113.579 202.027 113.098 201.471 112.751C200.915 112.403 200.245 112.228 199.466 112.228C198.166 112.228 197.209 112.771 196.596 113.856C195.983 114.94 195.677 116.357 195.677 118.1V118.427L195.674 118.43Z" fill="#202020"/>
<path d="M217.747 126.623C215.281 126.623 213.357 125.848 211.968 124.294C210.579 122.741 209.886 120.73 209.886 118.259V117.635C209.886 115.164 210.579 113.126 211.968 111.522C213.357 109.918 215.147 109.122 217.342 109.131C219.609 109.131 221.325 109.829 222.491 111.225C223.657 112.621 224.237 114.489 224.237 116.824V118.865H213.803L213.773 118.942C213.815 120.323 214.178 121.446 214.865 122.307C215.552 123.169 216.587 123.599 217.97 123.599C218.999 123.599 219.891 123.475 220.644 123.225C221.396 122.976 222.098 122.616 222.741 122.15L223.972 124.627C223.326 125.188 222.473 125.661 221.414 126.044C220.355 126.427 219.133 126.62 217.75 126.62L217.747 126.623ZM217.342 112.167C216.355 112.167 215.564 112.523 214.972 113.233C214.38 113.946 214.011 114.873 213.865 116.013L213.898 116.09H220.495V115.793C220.495 114.712 220.242 113.839 219.739 113.168C219.234 112.496 218.437 112.164 217.345 112.164L217.342 112.167Z" fill="#202020"/>
<path d="M136.314 69.0246C133.438 66.0751 129.633 63.8266 126.421 61.4325C121.505 57.7701 116.591 54.1107 111.675 50.4483C109.929 49.1265 106.562 47.7601 105.682 45.6186C104.418 42.5383 112.273 45.271 113.418 45.6393C118.355 47.2374 123.176 49.2126 127.813 51.5414C132.548 53.9176 137.099 56.6741 141.331 59.8612C141.673 60.1196 143.461 59.6592 143.85 59.6117C146.129 59.3414 148.395 58.9731 150.644 58.5275C154.394 57.785 158.073 56.7305 161.681 55.4711C163.546 54.8206 165.393 54.1137 167.222 53.374C168.918 52.6879 170.684 51.6483 172.588 51.9394C176.618 52.5602 174.31 58.1295 173.325 60.3513C171.574 64.3078 169.346 68.3623 167.008 71.9831C165.925 73.6613 164.745 75.2772 163.469 76.8158C154.492 87.6337 139.252 95.9535 125.008 91.9911C120.038 90.607 114.997 87.8891 111.374 84.1822C111.077 83.8792 110.78 83.5495 110.678 83.1366C110.027 80.4693 116.115 82.0643 117.147 82.3079C122.581 83.603 127.641 85.2069 133.301 84.402C137.215 83.8435 141.51 81.895 140.736 77.2227C140.234 74.1781 138.44 71.2049 136.311 69.0217L136.314 69.0246Z" fill="#4E9D4B"/>
<path d="M126.171 66.5801C122.186 66.5801 118.956 69.8058 118.956 73.7861C118.956 77.7663 122.186 80.9921 126.171 80.9921C130.157 80.9921 133.387 77.7663 133.387 73.7861C133.387 69.8058 130.157 66.5801 126.171 66.5801ZM126.171 77.7366C123.985 77.7366 122.215 75.9663 122.215 73.7861C122.215 71.6059 123.988 69.8355 126.171 69.8355C128.354 69.8355 130.127 71.6059 130.127 73.7861C130.127 75.9663 128.354 77.7366 126.171 77.7366Z" fill="#202020"/>
<path d="M122.906 27.4906C122.906 27.4906 127.427 40.9729 140.576 55.1591C140.576 55.1591 145.195 58.7205 143.726 52.3106C143.726 52.3106 136.388 33.5114 126.484 23.5401C126.484 23.5401 121.895 21.7193 122.906 27.4906Z" fill="#4E9D4B"/>
<path d="M136.269 17.7951C136.269 17.7951 138.866 33.8288 151.051 52.2507C151.051 52.2507 155.596 57.1221 155.132 49.622C155.132 49.622 150.349 27.0773 141.034 14.0049C141.034 14.0049 136.201 11.1029 136.269 17.7951Z" fill="#4E9D4B"/>
<path d="M154.662 24.3114C154.662 24.3114 154.948 34.3927 162.348 47.9581C162.348 47.9581 165.322 51.8285 165.765 47.275C165.765 47.275 164.495 32.857 158.728 23.0877C158.728 23.0877 155.322 20.3223 154.659 24.3114H154.662Z" fill="#4E9D4B"/>
</svg>
